<?xml version="1.0" encoding="UTF-8"?>
<svg width="32px" height="26px" viewBox="0 0 32 26" version="1.1" xmlns="http://www.w3.org/2000/svg" xmlns:xlink="http://www.w3.org/1999/xlink">
    <!-- Generator: Sketch 52.6 (67491) - http://www.bohemiancoding.com/sketch -->
    <title>客服端—选中通讯录icon</title>
    <desc>Created with Sketch.</desc>
    <g id="移动营销V3.3" stroke="none" stroke-width="1" fill="none" fill-rule="evenodd">
        <g id="pc客服版本-弹窗" transform="translate(-393.000000, -258.000000)" fill-rule="nonzero">
            <g id="分组-68" transform="translate(360.000000, 84.000000)">
                <g id="分组-48">
                    <g id="分组-50">
                        <g id="分组-49">
                            <g id="分组-43">
                                <g id="分组-42">
                                    <g id="聊天" transform="translate(33.000000, 89.000000)">
                                        <g id="客服端—选中通讯录icon" transform="translate(0.000000, 85.000000)">
                                            <path d="M22.8613816,8.53033114 L30.2654558,8.53033114 C30.8470128,8.53033114 31.2849851,8.82578461 31.2849851,9.44965721 C31.2849851,10.0737361 30.7792596,10.3691895 30.1977026,10.3691895 L22.8613816,10.3691895 C22.2795497,10.3691895 21.807546,10.0737361 21.807546,9.44965721 C21.807546,8.82575023 22.2795497,8.53033114 22.8613816,8.53033114 Z M31.2655976,13.662834 C31.2655976,14.2867753 30.8273502,14.5824351 30.2459652,14.5824351 L24.4313928,14.5824351 C23.8495609,14.5824351 23.3775572,14.2868785 23.3775572,13.662834 C23.3775572,13.038927 23.8495609,12.7435423 24.4313928,12.7435423 L30.2797215,12.7435423 C30.8612096,12.7435423 31.2655976,13.038927 31.2655976,13.662834 Z M30.2628433,18.5509647 L26.3762294,18.5509647 C25.7945694,18.5509647 25.3225313,18.2555112 25.3225313,17.6313292 C25.3225313,17.0075254 25.7945694,16.7120375 26.3762294,16.7120375 L30.2967027,16.7120375 C30.8783628,16.7120375 31.3158196,17.007491 31.3158196,17.6313292 C31.3158196,18.2553737 30.844469,18.5509303 30.2628433,18.5509303 L30.2628433,18.5509647 Z" id="形状" fill="#765F2C"></path>
                                            <path d="M23.453251,25.3988164 L3.09659297,25.3988164 C1.73152575,25.3988164 0.620765084,24.562231 0.620765084,23.1945513 L0.620765084,22.6002756 C0.620765084,21.3471679 1.54339116,20.2363385 2.72108003,19.813663 L7.76193902,17.5667385 C7.76193902,17.5667385 9.12834686,17.1467443 9.50238167,16.7275751 C9.75125696,16.448381 9.8280508,15.5278174 9.51259106,14.9235386 C9.19720006,14.3193285 6.64303147,10.9948153 6.64303147,8.20631201 C6.64303147,3.70930053 9.59897553,0.0636556595 13.245136,0.0636556595 C16.891434,0.0636556595 19.8471375,3.70930053 19.8471375,8.20631201 C19.8471375,11.1177404 16.9809466,14.3228348 16.7453401,15.1115013 C16.5095617,15.9002022 16.4905179,16.5175436 16.7568214,16.7795157 C17.1710406,17.1866193 18.2371137,17.6006667 18.2371137,17.6006667 L23.8289015,19.7797349 C25.0066935,20.2026166 25.9292508,21.3473054 25.9292508,22.6004131 L25.9291477,23.1945513 C25.9291477,24.5621279 24.8185245,25.3988164 23.453251,25.3988164 Z" id="路径" fill="#FDBE32"></path>
                                        </g>
                                    </g>
                                </g>
                            </g>
                        </g>
                    </g>
                </g>
            </g>
        </g>
    </g>
</svg>