<?xml version="1.0" encoding="UTF-8"?>
<svg width="19px" height="16px" viewBox="0 0 19 16" version="1.1" xmlns="http://www.w3.org/2000/svg" xmlns:xlink="http://www.w3.org/1999/xlink">
    <!-- Generator: Sketch 52.6 (67491) - http://www.bohemiancoding.com/sketch -->
    <title>常用语icon</title>
    <desc>Created with Sketch.</desc>
    <g id="移动营销V3.3" stroke="none" stroke-width="1" fill="none" fill-rule="evenodd">
        <g id="pc客服版本-弹窗" transform="translate(-1329.000000, -107.000000)" fill="#FDBE32" fill-rule="nonzero">
            <g id="语言设置" transform="translate(1329.000000, 106.000000)">
                <path d="M17.4213418,2.649676 L17.4451494,13.5984074 C17.4441588,14.0309253 17.0937784,14.3813154 16.6612496,14.3823183 L14.2551337,14.3823183 C14.0484946,14.3834986 13.8503517,14.4647046 13.7023176,14.6088815 L12.5196544,15.7530285 L11.4412106,14.6288194 C11.2904561,14.4725526 11.082869,14.3839605 10.865739,14.3832238 L2.60522328,14.3832238 C2.17269453,14.3822272 1.82230994,14.0318418 1.82131256,13.599313 L1.79750503,2.64831791 C1.79849574,2.21572381 2.14880466,1.86520478 2.58140616,1.86395497 L16.6373983,1.86395497 C17.0700326,1.86655807 17.4203458,2.2170745 17.4213418,2.649676 Z M2.58137602,0.998637348 C1.70725292,1.00113485 0.999953464,1.71045586 0.999967183,2.58458722 L1.01777051,13.7121132 C1.01777038,14.5862466 1.72506722,15.2955587 2.59919309,15.2980555 L10.8597088,15.2980555 L12.4955,17 L14.2490967,15.2980555 L16.6551989,15.2980555 C17.5293221,15.295558 18.2366215,14.586237 18.2366078,13.7121057 L18.2188045,2.58593792 C18.2188045,1.71180148 17.5115037,1.00247846 16.6373819,0.999995312 L2.58137602,0.998637348 Z M5.98433207,11.9416229 L8.95685282,4.15961405 L10.0624836,4.15961405 L13.2389106,11.9416229 L12.0698416,11.9416229 L11.1635871,9.58536199 L7.92372314,9.58536199 L7.07184408,11.9416229 L5.98433207,11.9416229 Z M8.21824649,8.74616757 L10.8463916,8.74616757 L10.0398252,6.59109654 L10.0398235,6.59109219 C9.83433406,6.06058742 9.64991982,5.52215715 9.48701293,4.97707314 L9.48701323,4.97707166 C9.38701862,5.4826009 9.24763497,5.97953515 9.07013788,6.46332518 L8.21824649,8.74616757 Z" id="形状"></path>
            </g>
        </g>
    </g>
</svg>