<?xml version="1.0" encoding="UTF-8"?>
<svg width="21px" height="20px" viewBox="0 0 21 20" version="1.1" xmlns="http://www.w3.org/2000/svg" xmlns:xlink="http://www.w3.org/1999/xlink">
    <!-- Generator: Sketch 52.6 (67491) - http://www.bohemiancoding.com/sketch -->
    <title>表情包icon</title>
    <desc>Created with Sketch.</desc>
    <g id="移动营销V3.3" stroke="none" stroke-width="1" fill="none" fill-rule="evenodd">
        <g id="pc客服版本-公共常用语" transform="translate(-746.000000, -851.000000)" fill="#959CB6" fill-rule="nonzero">
            <g id="表情包" transform="translate(746.000000, 850.500000)">
                <path d="M10.5681056,20.130457 C5.29372273,20.130457 1.00269022,15.8394245 1.00269022,10.5650417 C1.00269022,5.29065887 5.29372273,1 10.5681056,1 C15.8424884,1 20.1335209,5.29103251 20.1335209,10.5654153 C20.1335209,15.8397982 15.8424884,20.130457 10.5681056,20.130457 Z M10.5681056,2.00668426 C5.84908513,2.00668426 2.00974812,5.84600258 2.00974812,10.5650417 C2.00974812,15.2840621 5.84906644,19.1233991 10.5681056,19.1233991 C15.287126,19.1233991 19.126463,15.2840808 19.126463,10.5650417 C19.126463,5.84602126 15.2871447,2.00668426 10.5681056,2.00668426 Z M7.80392266,7.49258568 L7.53083165,7.49258568 C7.05273276,7.49258568 6.64271513,7.86932678 6.64271513,8.28049336 L6.64271513,9.06840103 C6.64271513,9.51360637 7.05234977,9.85630871 7.53083165,9.85630871 L7.80392266,9.85630871 C8.28202155,9.85630871 8.69203918,9.47956761 8.69203918,9.06840103 L8.69203918,8.28049336 C8.69203918,7.86932865 8.28240453,7.49258568 7.80392266,7.49258568 Z M13.6099603,7.49258568 L13.3368693,7.49258568 C12.8587704,7.49258568 12.4487528,7.86932678 12.4487528,8.28049336 L12.4487528,9.06840103 C12.4487528,9.51360637 12.8583874,9.85630871 13.3368693,9.85630871 L13.6099603,9.85630871 C14.0880592,9.85630871 14.4980768,9.47956761 14.4980768,9.06840103 L14.4980768,8.28049336 C14.4980768,7.86932865 14.0880592,7.49258568 13.6099603,7.49258568 Z M10.5704035,15.4737787 C8.82859403,15.4737787 7.25775185,14.4120159 6.57464134,12.8017732 C6.43809621,12.4590728 6.57464134,12.0482892 6.95023535,11.9109796 C7.29178874,11.774052 7.70142339,11.9109796 7.83835188,12.2877207 C8.31645077,13.3839052 9.37515343,14.1033486 10.5704016,14.1033486 C11.7656479,14.1033486 12.8587704,13.3839052 13.3024513,12.2877207 C13.4389963,11.9450202 13.8490144,11.7740511 14.1905678,11.9109796 C14.5321212,12.0479071 14.7027074,12.4590728 14.5661618,12.8017732 C13.8830551,14.4120103 12.3122054,15.4737787 10.5703997,15.4737787 L10.5704035,15.4737787 Z" id="形状"></path>
            </g>
        </g>
    </g>
</svg>