<?xml version="1.0" encoding="UTF-8"?>
<svg width="20px" height="20px" viewBox="0 0 20 20" version="1.1" xmlns="http://www.w3.org/2000/svg" xmlns:xlink="http://www.w3.org/1999/xlink">
    <!-- Generator: Sketch 52.6 (67491) - http://www.bohemiancoding.com/sketch -->
    <title>消息 (1)</title>
    <desc>Created with Sketch.</desc>
    <g id="移动营销V3.3" stroke="none" stroke-width="1" fill="none" fill-rule="evenodd">
        <g id="pc客服版本-公共常用语" transform="translate(-821.000000, -851.000000)" fill="#959CB6" fill-rule="nonzero">
            <g id="消息-(1)" transform="translate(821.000000, 850.500000)">
                <path d="M9.95654565,1 C4.44215481,1 0,5.2123847 0,10.4204276 C0,13.4839985 1.53177625,16.2411848 3.98261458,18.0027311 C3.14013028,19.2281411 2.29766438,19.8408553 2.29766438,19.8408553 L9.95654565,19.8408553 C15.4709365,19.8408553 19.9130913,15.628489 19.9130913,10.4204276 C19.9896875,5.2123847 15.4709365,1 9.95654565,1 Z M16.2368246,16.2411848 C15.3943587,17.0070729 14.4752966,17.6197871 13.4030422,18.0027127 C12.3308062,18.462253 11.1053778,18.6920231 9.95654565,18.6920231 L5.13146517,18.6920231 L5.82075712,17.8495388 L4.59532876,17.0836507 C3.52309274,16.3177625 2.60403067,15.3221227 2.06789426,14.1732905 C1.76154637,13.6371725 1.53177625,13.0244767 1.37860231,12.4117625 C1.22542836,11.7990483 1.14883219,11.109738 1.14883219,10.4204276 C1.14883219,9.27161385 1.37860231,8.19935943 1.83814254,7.20370118 C2.29768278,6.20806134 2.91037856,5.36557704 3.75284446,4.59968891 C4.59532876,3.83380079 5.51439083,3.22108661 6.58664525,2.83814254 C7.65888127,2.37860231 8.88430963,2.14885059 10.0331418,2.14885059 C11.2585702,2.14885059 12.407384,2.37860231 13.47962,2.83814254 C14.551856,3.29768278 15.4709365,3.83380079 16.3134208,4.59968891 C17.1558867,5.36557704 17.7686009,6.28463911 18.2281411,7.20370118 C18.6876629,8.19935943 18.917433,9.27161385 18.917433,10.4204276 C18.917433,11.5692598 18.6876629,12.6415142 18.2281411,13.6371725 C17.6920231,14.6328123 17.0793089,15.4752966 16.2368246,16.2411848 Z M4.7485027,10.4204276 C4.7485027,10.7267755 4.90167665,10.956564 5.0548506,11.1863342 C5.28460231,11.4160859 5.51439083,11.4926821 5.82073872,11.4926821 C6.12708661,11.4926821 6.35685673,11.3395081 6.58662685,11.1863342 C6.81637857,10.956564 6.89297474,10.7267939 6.89297474,10.4204276 C6.89297474,10.1140797 6.73980079,9.88430963 6.58662685,9.65455791 C6.35685673,9.42478779 6.12708661,9.34819162 5.82073872,9.34819162 C5.51439083,9.34819162 5.28460231,9.50136556 5.0548506,9.65453951 C4.90167665,9.88430963 4.7485027,10.1140613 4.7485027,10.4204276 Z M8.88430963,10.4204276 C8.88430963,10.7267755 9.03748357,10.956564 9.19065752,11.1863342 C9.42042764,11.4160859 9.65019775,11.4926821 9.95654565,11.4926821 C10.2628935,11.4926821 10.4926821,11.3395081 10.7224338,11.1863342 C10.9522039,10.956564 11.0287817,10.7267939 11.0287817,10.4204276 C11.0287817,10.1140797 10.8756077,9.88430963 10.7224338,9.65455791 C10.4926821,9.42478779 10.2628935,9.34819162 9.95654565,9.34819162 C9.65019775,9.34819162 9.42042764,9.50136556 9.19065752,9.65453951 C9.03748357,9.88430963 8.88430963,10.1140613 8.88430963,10.4204276 Z M13.0200982,10.4204276 C13.0200982,10.7267755 13.1732721,10.956564 13.326446,11.1863342 C13.5562162,11.4160859 13.7859863,11.4926821 14.0923342,11.4926821 C14.3986821,11.4926821 14.6284706,11.3395081 14.8582223,11.1863342 C15.0879924,10.956564 15.1645702,10.7267939 15.1645702,10.4204276 C15.1645702,10.1140797 15.0113962,9.88430963 14.8582223,9.65455791 C14.6284706,9.42478779 14.3986821,9.34819162 14.0923342,9.34819162 C13.7859863,9.34819162 13.5562162,9.50136556 13.326446,9.65453951 C13.1732721,9.88430963 13.0200982,10.1140613 13.0200982,10.4204276 Z" id="形状"></path>
            </g>
        </g>
    </g>
</svg>