<?xml version="1.0" encoding="UTF-8"?>
<svg width="24px" height="18px" viewBox="0 0 32 26" version="1.1" xmlns="http://www.w3.org/2000/svg" xmlns:xlink="http://www.w3.org/1999/xlink">
    <!-- Generator: Sketch 52.6 (67491) - http://www.bohemiancoding.com/sketch -->
    <title>客服端—默认聊天icon</title>
    <desc>Created with Sketch.</desc>
    <g id="移动营销V3.3" stroke="none" stroke-width="1" fill="none" fill-rule="evenodd">
        <g id="pc客服版本-弹窗" transform="translate(-393.000000, -173.000000)" fill-rule="nonzero">
            <g id="分组-68" transform="translate(360.000000, 84.000000)">
                <g id="分组-48">
                    <g id="分组-50">
                        <g id="分组-49">
                            <g id="分组-43">
                                <g id="分组-42">
                                    <g id="聊天" transform="translate(33.000000, 89.000000)">
                                        <path d="M15.9416841,0 C7.69167445,0 1,5.59167317 1,12.5033479 L15.9416841,0 Z M1,12.5033479 C1,16.646686 3.40166946,20.313357 7.1050071,22.5866929 C7.1050071,22.5866929 9.37834308,24.5850286 2.44833502,25.74003 C27.6383643,27.1700316 30.9017015,19.3966892 30.9017015,12.5033479 C30.9017015,5.61000653 24.210027,0 15.9600174,0 L1,12.5033479 Z" id="形状" fill="currentColor"></path>
                                        <path d="M11.4316788,12.9800151 C10.5516778,12.9800151 9.83667695,12.2833476 9.83667695,11.4400133 C9.83667695,10.596679 10.5516778,9.90001152 11.4316788,9.90001152 C12.3116798,9.90001152 13.0266807,10.596679 13.0266807,11.4400133 C13.0266807,12.2833476 12.3116798,12.9800151 11.4316788,12.9800151 Z" id="路径" fill="#765F2C"></path>
                                        <path d="M21.05669,12.9800151 C20.176689,12.9800151 19.4616881,12.2833476 19.4616881,11.4400133 C19.4616881,10.596679 20.176689,9.90001152 21.05669,9.90001152 C21.936691,9.90001152 22.6516919,10.596679 22.6516919,11.4400133 C22.6516919,12.2833476 21.936691,12.9800151 21.05669,12.9800151 Z" id="路径" fill="#765F2C"></path>
                                    </g>
                                </g>
                            </g>
                        </g>
                    </g>
                </g>
            </g>
        </g>
    </g>
</svg>