<?xml version="1.0" encoding="UTF-8"?>
<svg class="icon" viewBox="0 0 1024 1024" version="1.1" xmlns="http://www.w3.org/2000/svg"
     width="32" height="32">
    <path d="M725.79 313.17h-57.72a28 28 0 0 0-28 28 28 28 0 0 0 28 28h57.72a56.05 56.05 0 0 1 56 56V848a56.05 56.05 0 0 1-56 56H298.21a56.05 56.05 0 0 1-56-56V425.15a56.05 56.05 0 0 1 56-56h57.72a28 28 0 0 0 28-28 28 28 0 0 0-28-28h-57.72a112 112 0 0 0-112 112V848a112 112 0 0 0 112 112h427.58a112 112 0 0 0 112-112V425.15a112 112 0 0 0-112-111.98z"
          fill="#959CB6"></path>
    <path d="M385.54 247.45a27.92 27.92 0 0 0 19.79-8.2l78-78v298a28 28 0 1 0 56 0V157.91l81.34 81.34a28 28 0 1 0 39.58-39.59L532.79 72.2a28 28 0 0 0-39.58 0L365.74 199.66a28 28 0 0 0 19.8 47.79z"
          fill="#959CB6"></path>
</svg>