<?xml version="1.0" encoding="UTF-8"?>
<svg width="21px" height="21px" viewBox="0 0 21 21" version="1.1" xmlns="http://www.w3.org/2000/svg" xmlns:xlink="http://www.w3.org/1999/xlink">
    <!-- Generator: Sketch 52.6 (67491) - http://www.bohemiancoding.com/sketch -->
    <title>图片</title>
    <desc>Created with Sketch.</desc>
    <g id="移动营销V3.3" stroke="none" stroke-width="1" fill="none" fill-rule="evenodd">
        <g id="pc客服版本-公共常用语" transform="translate(-783.000000, -851.000000)" fill="#959CB6" fill-rule="nonzero">
            <g id="图片" transform="translate(783.000000, 851.500000)">
                <g id="分组" transform="translate(1.375002, 1.814456)">
                    <path d="M16.1577095,0.00429688 L2.5029326,0.00429688 C1.12363412,0.00429688 0,1.12578256 0,2.50722948 L0,13.8638833 C0,15.2431818 1.12363412,16.3668159 2.5029326,16.3668159 L16.1577095,16.3668159 C17.537008,16.3668159 18.6606421,15.2431818 18.6606421,13.8638833 L18.6606421,2.50722948 C18.6606421,1.12578256 17.537008,0.00429688 16.1577095,0.00429688 Z M2.5029326,0.966798 L16.2785602,0.902332 C17.127194,0.902332 17.8189917,1.59412968 17.8189917,2.44276348 L17.8189917,8.1855436 C13.8873465,5.6396422 9.023448,8.0673922 6.22617912,10.4478637 C3.8564498,12.4673973 1.58125184,11.0472785 0.96250112,10.5832154 L0.96250112,2.50722948 C0.96250112,1.65859568 1.6542988,0.966798 2.5029326,0.966798 Z M2.5029326,15.4043148 C1.6542988,15.4043148 0.96250112,14.7125171 0.96250112,13.8638833 L0.96250112,11.7175918 C1.58340028,12.0677875 2.52226856,12.460952 3.61797296,12.460952 C4.6084038,12.460952 5.7255926,12.1408344 6.85137516,11.1826302 C9.54551892,8.88809628 14.2769644,6.57637484 17.7939607,9.44454224 L17.7939607,13.8660318 C17.7939607,14.7125171 17.102163,15.4043148 16.2535292,15.4043148 L2.5029326,15.4043148 Z" id="形状"></path>
                    <path d="M4.82109936,8.09747036 C5.87383496,8.09747036 6.73106252,7.2402428 6.73106252,6.1875072 C6.73106252,5.1347716 5.87383496,4.27754404 4.82109936,4.27754404 C3.76836376,4.27754404 2.9111362,5.1347716 2.9111362,6.1875072 C2.9111362,7.2402428 3.76621532,8.09747036 4.82109936,8.09747036 Z M4.82109936,5.24004516 C5.34317028,5.24004516 5.7685614,5.66543628 5.7685614,6.1875072 C5.7685614,6.70957812 5.34317028,7.13496924 4.82109936,7.13496924 C4.29902844,7.13496924 3.87363732,6.70957812 3.87363732,6.1875072 C3.87363732,5.66543628 4.29688,5.24004516 4.82109936,5.24004516 Z" id="形状"></path>
                </g>
            </g>
        </g>
    </g>
</svg>